<svg xmlns="http://www.w3.org/2000/svg" viewBox="0 0 1001 1001">
    <rect opacity="0" x="0.5" y="0.5" width="1000" height="1000"/>
    <path d="M926.48,548.59a97.67,97.67,0,0,0-82.7-82.7V440.53c0-70-53.19-126.94-118.57-126.94-63.5,0-116.66,55.24-118.57,123.15h.81l-.81.14v274.9c0,87.88-65.7,159.24-146.47,159.24S313.71,799.56,313.71,711.78V688c20.22,0,41.84-14.66,41.84-55.79V597.08C445.08,574.19,509,497.32,509,410.16V381.08H481.1l-.59-181.55a69.8,69.8,0,0,0-57.38-68.28,41.62,41.62,0,1,0-.95,28.44,41.83,41.83,0,0,1,30.39,39.92l.63,181.47H425.3v29.49A110.91,110.91,0,0,1,345,514.64a126.83,126.83,0,0,1-76.72,0,110.87,110.87,0,0,1-80.13-104.07V381.08H146.31V199.74a41.85,41.85,0,0,1,31-40.23,42.06,42.06,0,1,0-.86-28.33,69.74,69.74,0,0,0-58,68.56V381.08H90.52v29c0,87.26,64,164.16,153.44,187v35.09C244,673.3,265.58,688,285.81,688v23.82C285.81,815,364,898.92,460.17,898.92s174.37-84,174.37-187.14V437.55c1.4-52.94,42.1-96,90.67-96,50,0,90.67,44.42,90.67,99v25.32a97.65,97.65,0,1,0,110.6,82.7Zm-543-390.7a13.95,13.95,0,1,1,13.95-13.95A14,14,0,0,1,383.45,157.89ZM216.06,130a13.95,13.95,0,1,1-13.95,13.95A14,14,0,0,1,216.06,130Zm-97.64,280.1V409h41.84v1.59a138.62,138.62,0,0,0,99.57,130.61,155.32,155.32,0,0,0,93.72,0A138.64,138.64,0,0,0,453.2,410.57V409h27.9v1.11c0,77.6-59.82,145.89-142.28,162.4A199.09,199.09,0,0,1,280,575.38a181.17,181.17,0,0,1-19.26-2.92C178.23,556,118.42,487.69,118.42,410.09Zm167.39,250c-12.56,0-13.95-19.53-13.95-27.9v-29.6c1.11.14,2.26.19,3.39.3,1.39.16,2.79.27,4.18.39,6.6.59,13.26,1,20,1h.7c6.7,0,13.34-.4,19.89-1,1.4-.12,2.88-.23,4.31-.39,1.11-.12,2.25-.16,3.35-.3v29.6c0,8.37-1.39,27.9-13.95,27.9Zm544-27.9a69.75,69.75,0,1,1,69.75-69.75A69.74,69.74,0,0,1,829.83,632.17Z"/>
</svg>