<svg xmlns="http://www.w3.org/2000/svg" viewBox="0 0 1001 1001">
    <rect opacity="0" x="0.5" y="0.5" width="1000" height="1000"/>
    <path d="M436.76,751.24V720c0-.13,0-.25,0-.37-.57-24.16-1.15-49.14-8.09-75.16-15.8-59.18-50.06-91.85-114.55-109.26-1.77-.48-4.07-.71-5.66-1.62-1.34-.77-2.27-2.89-3.05-4.15l-40.63-66a53.57,53.57,0,0,0-33.48-24.24l-9.74-125.81c-2.3-29.34-24.91-51.52-52.6-51.58h-.11c-28.07,0-50.71,22.17-52.69,51.62l-5.57,82.87a15.61,15.61,0,1,0,31.14,2.09l5.57-82.87c.86-12.84,10.13-22.5,21.56-22.5h0c13,0,20.66,11.49,21.54,22.79l9.7,125.17a54.11,54.11,0,0,0-27.42,79.08l65.87,106.93a15.6,15.6,0,1,0,26.57-16.36L199.29,503.78A22.81,22.81,0,0,1,224,469.62a22.6,22.6,0,0,1,14.15,10.23l40.64,66c8.14,13.26,14.21,16.06,26.12,19.27l1,.28c61.95,16.72,81.8,46.94,92.54,87.17,6,22.36,6.51,45.39,7,67.67v29.14H264.42V747c0-48.23-47.58-88.9-79.07-115.81-4.71-4-9.17-7.83-12.75-11.08l-.61-.55c-29.17-26.46-41.25-37.41-39.62-81.78a15.61,15.61,0,0,0-31.19-1.14C99,595.5,119.71,614.27,151,642.67l.62.56c3.92,3.55,8.54,7.5,13.43,11.68,27.13,23.19,68.14,58.23,68.14,92.08v4.24a39.24,39.24,0,0,0-27.16,37.29v56.69a39.22,39.22,0,0,0,39.18,39.18h179.5a39.23,39.23,0,0,0,39.19-39.18V788.52a39.23,39.23,0,0,0-27.16-37.28Zm-4.05,94a8,8,0,0,1-8,8H245.23a8.08,8.08,0,0,1-8-8V788.52a8.08,8.08,0,0,1,8-8h179.5a8.08,8.08,0,0,1,8,8Z"/>
    <path d="M899.84,536.63c0-.16,0-.31,0-.47l-15-222.66c-2-29.45-24.62-51.62-52.69-51.62h-.12c-27.69.06-50.3,22.24-52.59,51.59l-9.75,125.8a53.55,53.55,0,0,0-33.45,24.21l-40.67,66c-.77,1.26-1.7,3.37-3,4.13-1.6.91-3.88,1.14-5.65,1.62-64.5,17.41-98.76,50.08-114.57,109.27-6.93,26-7.52,51-8.08,75.15,0,.12,0,.25,0,.37v31.22a39.23,39.23,0,0,0-27.16,37.28v56.69a39.23,39.23,0,0,0,39.18,39.18H755.79A39.22,39.22,0,0,0,795,845.21V788.52a39.23,39.23,0,0,0-27.16-37.28V747c0-33.84,41-68.89,68.14-92.08,4.89-4.18,9.51-8.13,13.44-11.69l.6-.55c31.32-28.4,52-47.17,49.85-106ZM763.76,845.21a8.08,8.08,0,0,1-8,8H576.29a8.08,8.08,0,0,1-8-8V788.52a8.08,8.08,0,0,1,8-8h179.5a8.08,8.08,0,0,1,8,8ZM829,619.56l-.6.53c-3.59,3.26-8,7.06-12.76,11.09C784.18,658.09,736.6,698.76,736.6,747v2.35H595.47V720.2c.53-22.28,1.08-45.31,7-67.67,10.74-40.23,30.59-70.45,92.56-87.18l1-.27c11.91-3.21,18-6,26.11-19.25l40.67-66A22.57,22.57,0,0,1,777,469.62a22.83,22.83,0,0,1,6.51-.6h.24a22.87,22.87,0,0,1,18,34.75L735.87,610.7a15.6,15.6,0,1,0,26.57,16.36L828.3,520.14a54.13,54.13,0,0,0-27.41-79.09l9.7-125.16c.88-11.31,8.56-22.77,21.54-22.8h0c11.43,0,20.69,9.67,21.56,22.5L868.66,538c1.57,44.16-10.51,55.13-39.63,81.55Z"/>
    <path d="M293.62,432h68.89a139,139,0,0,0-2.66,27v24.67a15.61,15.61,0,0,0,15.61,15.61h250.1a15.61,15.61,0,0,0,15.61-15.61V459a139,139,0,0,0-2.66-27h68.93a15.6,15.6,0,0,0,15.61-15.6V391.71a141,141,0,0,0-64-117.73A97.42,97.42,0,1,0,500.52,161,97.44,97.44,0,1,0,342,274,141,141,0,0,0,278,391.71v24.68a15.59,15.59,0,0,0,15.6,15.6ZM610,468.05H391.06V459a109.82,109.82,0,0,1,56.76-95.8,97.08,97.08,0,0,0,105.37,0A109.8,109.8,0,0,1,610,459v9.08Zm81.88-76.34v9.07H628.45a141.68,141.68,0,0,0-51.23-59.55,97.41,97.41,0,0,0,16.14-30.42A97,97,0,0,0,635,295.91a109.84,109.84,0,0,1,56.8,95.8ZM582.34,147.82a66.2,66.2,0,0,1,15.53,130.56,97.57,97.57,0,0,0-75.69-92.09A66.2,66.2,0,0,1,582.34,147.82ZM500.51,215a66.23,66.23,0,1,1-66.23,66.21A66.29,66.29,0,0,1,500.51,215Zm-81.84-67.22a66.15,66.15,0,0,1,60.18,38.47,97.56,97.56,0,0,0-75.71,92.09,66.2,66.2,0,0,1,15.53-130.56ZM309.23,391.71A109.81,109.81,0,0,1,366,295.91a96.92,96.92,0,0,0,41.68,14.9,97.41,97.41,0,0,0,16.14,30.42,141.68,141.68,0,0,0-51.23,59.55H309.23Z"/>
    <path d="M121.46,482.94a15.63,15.63,0,1,0-15.61-15.65v.09A15.57,15.57,0,0,0,121.46,482.94Z"/>
</svg>