<svg xmlns="http://www.w3.org/2000/svg" viewBox="0 0 1001 1001">
    <rect opacity="0" x="0.5" y="0.5" width="1000" height="1000"/>
    <path d="M825.88,300.94c-35.76-28.5-86.22-51.83-150-69.34-122.65-33.68-261-37.32-314.74-37.32-139.33,0-252.69,113.36-252.69,252.69V554c0,139.34,113.36,252.69,252.69,252.69,64.25,0,112.5-20.13,163.58-41.43,52.83-22,107.46-44.82,184.28-44.82,101.21,0,183.55-82.34,183.55-183.55V429.86C892.55,379.57,870.12,336.19,825.88,300.94ZM813,562.74a15.31,15.31,0,0,0,21.65.65A184.09,184.09,0,0,0,861.92,531v5.93c0,84.32-68.6,152.92-152.92,152.92-83,0-140.46,24-196.07,47.18-48.17,20.09-93.67,39.07-151.79,39.07-117.64,0-214.2-92-221.59-207.78,43,78.22,126.21,131.34,221.59,131.34,64.25,0,112.5-20.12,163.58-41.43,52.83-22,107.46-44.82,184.28-44.82,5.71,0,11.48-.27,17.14-.8a15.31,15.31,0,1,0-2.85-30.49c-4.73.44-9.53.66-14.29.66-83,0-140.46,24-196.07,47.18C464.76,650.05,419.26,669,361.14,669,238.7,669,139.08,569.41,139.08,447S238.7,224.91,361.14,224.91c52.53,0,187.57,3.53,306.63,36.22,128.83,35.38,194.15,92.15,194.15,168.73a153.46,153.46,0,0,1-48.29,111.23A15.32,15.32,0,0,0,813,562.74Z"/><path class="cls-4" d="M800.39,572.52A15.31,15.31,0,0,0,780,565.18l-.36.18a15.31,15.31,0,1,0,20.74,7.16Z"/><path class="cls-4" d="M471.69,259.85l-.79-.06a15.31,15.31,0,0,0-2.43,30.53l.78.06c.41,0,.83.06,1.24.06a15.32,15.32,0,0,0,1.2-30.59Z"/><path class="cls-4" d="M821.73,388.6c-15.19-30-49-56-100.46-77.11-41.65-17.11-87.2-27.92-118.07-34-18.51-3.63-37.9-6.87-57.64-9.63a15.32,15.32,0,1,0-4.24,30.34c19.19,2.68,38,5.83,56,9.35,105.2,20.63,177,55.21,197.1,94.86a59.39,59.39,0,0,1,6.26,27.43A91.76,91.76,0,0,1,709,521.51c-51.1,0-100.72,8.36-151.7,25.54-22,7.4-43.28,16.24-63.9,24.8-13.64,5.66-27.74,11.51-41.73,16.82-35.33,13.39-62.4,19.1-90.53,19.1-88.67,0-160.8-72.14-160.8-160.8s72.13-160.81,160.8-160.81c17.3,0,34.86.33,52.19,1,2.94.11,5.89.22,8.84.35a15.31,15.31,0,1,0,1.35-30.59q-4.53-.21-9-.37c-17.71-.66-35.65-1-53.33-1-105.56,0-191.43,85.87-191.43,191.43S255.58,638.4,361.14,638.4c32.06,0,62.38-6.31,101.38-21.09,14.44-5.47,28.77-11.42,42.62-17.17,20.14-8.36,41-17,61.94-24.07,47.78-16.1,94.2-23.93,141.92-23.93A122.42,122.42,0,0,0,831.29,429.86,89.34,89.34,0,0,0,821.73,388.6Z"/><path class="cls-4" d="M375.81,316.45c-42.81,0-77.65,31.59-77.65,70.41s34.84,70.41,77.65,70.41,77.64-31.58,77.64-70.41S418.62,316.45,375.81,316.45Zm0,110.19c-25.93,0-47-17.84-47-39.78s21.09-39.78,47-39.78,47,17.85,47,39.78S401.73,426.64,375.81,426.64Z"/>
</svg>