<svg version="1.1" xmlns="http://www.w3.org/2000/svg" viewBox="0 0 1001 1001">
	<rect x="0.5" y="0.5" opacity="0" width="1000" height="1000"/>
	<path d="M597.8,830.5c-33.9,0-61.4-27.5-61.4-61.4s27.5-61.4,61.4-61.4s61.4,27.5,61.4,61.4
		C659.1,803,631.7,830.4,597.8,830.5z"/>
	<path d="M597.8,710.2c32.5,0,58.9,26.4,58.9,58.9c0,32.5-26.4,58.9-58.9,58.9c-32.5,0-58.9-26.4-58.9-58.9
		c0,0,0,0,0,0C539,736.6,565.3,710.2,597.8,710.2 M597.8,705.2L597.8,705.2c-35.3,0-63.9,28.6-63.9,63.9
		c0,35.3,28.6,63.9,63.9,63.9c35.3,0,63.9-28.6,63.9-63.9c0,0,0,0,0,0C661.6,733.8,633.1,705.2,597.8,705.2z"/>
	<path d="M365.4,659.5c-31.5,0.1-58.9-21.5-66.2-52.1l-68.6-280.7c-4.7-19.4-22.1-33.1-42.1-33.1H154
		c-6.8,0-12.4-5.6-12.4-12.4c0-6.8,5.5-12.4,12.4-12.4h34.7c31.3-0.1,58.7,21.3,66,51.8l9.1,37.2h502.7c3.8,0.1,7.4,1.9,9.7,4.9
		c2.3,3,3.2,6.9,2.4,10.6l-53.3,233c-7,31.1-34.5,53.1-66.4,53.1H365.4z"/>
	<path d="M188.7,271.2c30.2,0,56.4,20.6,63.5,49.9l9.6,39.1h504.7c3,0.1,5.9,1.5,7.7,3.9c1.9,2.4,2.6,5.6,1.9,8.6
		l-53.3,233c-6.7,30-33.2,51.3-63.9,51.2H365.4c-30.3,0-56.7-20.8-63.8-50.2L233,326c-5-20.5-23.4-35-44.5-35H154
		c-5.5,0-9.9-4.4-9.9-9.9c0-5.5,4.4-9.9,9.9-9.9L188.7,271.2 M188.7,266.2H154c-8.2,0-14.9,6.7-14.9,14.9c0,8.2,6.7,14.9,14.9,14.9
		h34.5c18.8,0,35.2,12.9,39.7,31.2L296.8,608c7.7,31.7,36,54,68.6,54H659c33,0,61.6-22.9,68.8-55.1l53.3-233c1-4.5,0-9.1-2.8-12.7
		c-2.8-3.6-7-5.8-11.6-5.9H265.8l-8.7-35.3C249.5,288.4,221.2,266.2,188.7,266.2L188.7,266.2z"/>
	<path d="M406.7,830.5c-33.9,0-61.4-27.5-61.4-61.4s27.5-61.4,61.4-61.4s61.4,27.5,61.4,61.4
		C468,803,440.6,830.4,406.7,830.5z"/>
	<path d="M406.7,710.2c32.5,0,58.9,26.4,58.9,58.9c0,32.5-26.4,58.9-58.9,58.9s-58.9-26.4-58.9-58.9c0,0,0,0,0,0
		C347.8,736.6,374.2,710.2,406.7,710.2 M406.7,705.2L406.7,705.2c-35.3,0-63.9,28.6-63.9,63.9s28.6,63.9,63.9,63.9
		c35.3,0,63.9-28.6,63.9-63.9c0,0,0,0,0,0C470.5,733.8,441.9,705.2,406.7,705.2z"/>
</svg>
