<svg version="1.1" id="Livello_1" xmlns="http://www.w3.org/2000/svg" viewBox="0 0 1001 1001" xml:space="preserve">
	<g class="st0">
		<rect opacity="0"  x="0.5" y="0.5" class="st1" width="1000" height="1000"/>
	</g>
		<path d="M657.2,484.1L531.1,610.2V286.3c0-16.9-13.7-30.6-30.6-30.6c-16.9,0-30.6,13.7-30.6,30.6v323.9L343.8,484.1
			c-12-11.9-31.4-11.8-43.3,0.3c-11.8,11.9-11.8,31.1,0,43l173.1,173.1c7.3,7.3,17.4,9.6,26.9,7.9c9.5,1.7,19.5-0.6,26.9-7.9
			l173.1-173.1c12-12,11.9-31.4,0-43.3C688.5,472.1,669.1,472.1,657.2,484.1z"/>
		<path d="M500.5,11C230.2,11,11,230.1,11,500.5
			S230.2,990,500.5,990S990,770.8,990,500.5S770.9,11,500.5,11z M500.5,928.8C264,928.8,72.2,737,72.2,500.5S264,72.2,500.5,72.2
			S928.8,264,928.8,500.5S737,928.8,500.5,928.8z"/>
</svg>
