<svg xmlns="http://www.w3.org/2000/svg" viewBox="0 0 1001 1001">
    <rect opacity="0" x="0.5" y="0.5" width="1000" height="1000"/>
    <path d="M846,500.5H833.2V193.39H846a38.39,38.39,0,0,0,0-76.78H155a38.39,38.39,0,0,0,0,76.78h12.8V500.5H155a38.39,38.39,0,0,0,0,76.78H846a38.39,38.39,0,0,0,0-76.78ZM155,167.8a12.8,12.8,0,0,1,0-25.59H846a12.8,12.8,0,0,1,0,25.59Zm652.61,25.59V500.5H193.39V193.39ZM846,551.68H155a12.8,12.8,0,0,1,0-25.59H846a12.8,12.8,0,0,1,0,25.59Z"/>
    <path d="M334.15,410.07a12.79,12.79,0,0,0,12.79-12.8V334.63l38.39,16.31V427.3l0,.14a12.86,12.86,0,0,0,1,4.74q1.32,2.07,2.71,4.09a12.77,12.77,0,0,0,4.14,2.83l63.63,27a112.58,112.58,0,0,0,87.47,0l63.56-27a12.93,12.93,0,0,0,4.14-2.83c.93-1.35,1.83-2.72,2.71-4.09a12.9,12.9,0,0,0,1-4.74l0-.14V350.94l50.67-21.54a23,23,0,0,0,0-41.7l-157.9-67.09a20.12,20.12,0,0,0-15.89,0L334.65,287.7a22.41,22.41,0,0,0-13.3,20.85v88.72A12.8,12.8,0,0,0,334.15,410.07Zm255.92,8.77L534.34,442.5a87.18,87.18,0,0,1-67.61,0l-55.81-23.69v-57l81.64,34.69a20.21,20.21,0,0,0,15.89,0l81.62-34.69v57ZM500.5,245,650,308.56l-52,22.1-.11,0L500.5,372.07l-97.34-41.36-.11,0-52-22.1Z"/>
    <path d="M858.79,807.61H833.2V791.16a85.59,85.59,0,0,0-48-76,64,64,0,1,0-83.09,0,85.59,85.59,0,0,0-48,76v16.45h-64V791.16a85.59,85.59,0,0,0-48-76,64,64,0,1,0-83.09,0,85.59,85.59,0,0,0-48,76v16.45h-64V791.16a85.58,85.58,0,0,0-48-76,64,64,0,1,0-83.08,0,85.58,85.58,0,0,0-48,76v16.45H142.21a25.62,25.62,0,0,0-25.6,25.59v25.59a25.64,25.64,0,0,0,25.6,25.6H858.79a25.64,25.64,0,0,0,25.6-25.6V833.2A25.62,25.62,0,0,0,858.79,807.61ZM743.63,628.46a38.39,38.39,0,1,1-38.39,38.39A38.39,38.39,0,0,1,743.63,628.46Zm-64,162.7a64.09,64.09,0,0,1,128,0v16.45h-128V791.16ZM500.5,628.46a38.39,38.39,0,1,1-38.39,38.39A38.39,38.39,0,0,1,500.5,628.46Zm-64,162.7a64.09,64.09,0,0,1,128,0v16.45h-128V791.16ZM257.37,628.46A38.39,38.39,0,1,1,219,666.85,38.39,38.39,0,0,1,257.37,628.46Zm-64,162.7a62.31,62.31,0,0,1,64-60.33,62.3,62.3,0,0,1,64,60.33v16.45h-128Zm-51.18,67.63V833.2H858.79l0,25.59Z"/>
</svg>