<svg xmlns="http://www.w3.org/2000/svg" viewBox="0 0 1001 1001">
<rect opacity="0"  fill="#fff" x="0.5" y="0.5" width="1000" height="1000"/>
<path class="cls-4" fill="#010101" d="M911.63,178.48a16.31,16.31,0,0,0-14-2.93L820,
        195.28a155.27,155.27,0,0,1-38.14,4.77H668a73.77,73.77,0,0,0-73.34,63,41.37,
        41.37,0,0,1-41.12,35.31h-4.16V264.31a95.93,95.93,0,1,0-97.84,0v34.06h-4.16a41.37,
        41.37,0,0,1-41.12-35.31,73.77,73.77,0,0,0-73.34-63H219.11A155.27,155.27,0,0,1,
        181,195.28L103.4,175.55a16.31,16.31,0,0,0-20.33,15.8,131.27,131.27,0,0,0,35,
        89.29,126.17,126.17,0,0,0,48.19,97.68l15.33,20.5a187.11,187.11,0,0,0,149.1,
        74.65,184.92,184.92,0,0,0,120.92-44.59V487H437a105.46,105.46,0,0,0-92.41,
        156.26,16.31,16.31,0,1,0,28.56-15.74A72.87,72.87,0,0,1,437,
        519.64h14.62V665.31H413.26a78,78,0,0,0,0,156H458.6a421.86,421.86,0,0,0,
        27.12,89.58,16.29,16.29,0,0,0,15,9.88h0a16.3,16.3,0,0,0,15-9.94l.32-.76a422.05,
        422.05,0,0,0,26.54-88.76H561.1a33.43,33.43,0,1,1,0,66.85H560a16.31,16.31,0,1,0,
        0,32.61h1.1a66,66,0,1,0,0-132.07H547.21a426.13,426.13,0,0,0,
        2.21-43.27v-47.5h10.87a105.45,105.45,0,0,0,0-210.89H549.42V428.88a184.92,184.92,
        0,0,0,120.92,44.59,187.11,187.11,0,0,0,149.1-74.65l15.33-20.5A126.17,126.17,0,0,
        0,883,280.64a131.26,131.26,0,0,0,35-89.28A16.32,16.32,0,0,0,911.63,178.48Zm-473,
        218a152.69,152.69,0,0,1-108,44.39,154.34,154.34,0,0,1-98.7-36c4.09.4,8.24.62,
        12.43.62H271.7a16.31,16.31,0,1,0,0-32.61H244.39A93.92,93.92,0,0,1,155.52,
        309a130.89,130.89,0,0,0,59.33,14.18h33.73a16.31,16.31,0,0,0,0-32.61H214.85a99.36,
        99.36,0,0,1-96.8-77.61l54.89,13.95a187.22,187.22,0,0,0,46.17,5.78H333A41.35,
        41.35,0,0,1,374.07,268a73.77,73.77,0,0,0,73.35,63h4.16V383.7ZM413.26,
        788.69a45.39,45.39,0,0,1,0-90.77h38.32v46.53a425.1,425.1,0,0,0,2.31,
        44.24Zm103.55-43.27a388.32,388.32,0,0,1-16.16,111.23,388,388,0,0,
        1-16.46-112.2V697.92h32.62v47.5Zm0-80.12H484.19V276.35a94.38,94.38,0,0,0,
        32.62,0Zm43.48-145.66a72.83,72.83,0,1,1,0,145.66H549.42V519.64ZM500.5,
        245.15a63.32,63.32,0,1,1,63.32-63.31A63.38,63.38,0,0,1,500.5,245.15Zm285.65,
        45.39H752.42a16.31,16.31,0,1,0,0,32.61h33.72A131,131,0,0,0,845.49,309a93.94,
        93.94,0,0,1-88.88,63.92H729.3a16.31,16.31,0,0,0,0,32.61h27.31c4.2,0,8.34-.22,
        12.43-.62a154.34,154.34,0,0,1-98.7,36,152.69,152.69,0,0,1-108-44.39L549.42,
        383.7V331h4.16a73.77,73.77,0,0,0,73.35-63A41.35,41.35,0,0,1,668,
        232.66H781.89a187.22,187.22,0,0,0,46.17-5.78L883,212.93A99.36,99.36,0,0,1,
        786.15,290.54Z"/>
</svg>