<svg xmlns="http://www.w3.org/2000/svg" viewBox="0 0 1001 1001">
    <rect opacity="0" x="0.5" y="0.5" width="1000" height="1000"/>
    <path class="cls-4" d="M841.41,720.06l-8.86-2c85.86-70.34,104.16-226.54,23.28-307.93-31.12-31.3-49.71-80.83-49.71-132.52,0-74.92-49.28-135.88-109.87-135.88s-109.88,61-109.88,135.88a213.91,213.91,0,0,1-5.84,49.77c-56.44-65.16-146.08-72.62-206-31V143.54a12,12,0,0,0-24,0v47.11c-35.83-64.64-101-81.93-174-67.23a12,12,0,0,0-8.73,16.32c.67,1.63,16.83,40.58,48,74.68,37,40.37,82.81,60.41,134.73,46v35.9c-70.46-49-188.44-31.38-236.91,80.26a12,12,0,0,0,22,9.54C180,284,286,275.77,342.3,320.07a31.4,31.4,0,0,0,40.44,0c64-50.44,174.82-28.49,212.79,81.88,20.41,59.44,16.32,121.6-19.1,185.9-14.09,25.21-25.68,46.17-35.24,63.62-74.3-16-84.91-21.86-110.19-21.31a12,12,0,1,0,.49,24,102.85,102.85,0,0,1,14.5.78l-7.19,64.61a12,12,0,1,0,23.85,2.65l7-62.46c47.93,10.94,79.12,18.07,116.28,26.57l-3.43,30.81a12,12,0,1,0,23.84,2.66l3.13-28.09,179.82,41.08L780,815.91a12,12,0,1,0,23.84,2.66l9-80.45,23.28,5.32a57.87,57.87,0,0,1-12.76,114.29l-122.8.23,4.36-39.11A12,12,0,1,0,681,816.19L676.37,858l-117.69.23,4.09-36.78a12,12,0,1,0-23.85-2.65c-1,9.16-4.29,38.5-4.39,39.48l-56.35.1,7.14-64a12,12,0,0,0-23.85-2.66L454,858.44h-.42l-19.87,0A102.15,102.15,0,0,1,390.05,664a12,12,0,0,0-10.29-21.67,125.88,125.88,0,0,0-54.81,50c-24.28-12.11-52.05-31.16-66.87-59.21-19.14-36.36-74.35-22.71-74.54,18.35L146,583.08c-25.76-46.82-35.2-99.36-24-153.59a12,12,0,0,0-23.5-4.86c-12,58.2-2.9,116.66,26.45,170l51.26,93.15-37.56-4.18a39.57,39.57,0,0,0-8.77,78.65L192,769.19c-15.42,13.81-27.84,26.32-26.28,46,2.7,34.88,46.58,49.41,69.52,22.64,18.87-22.09,48.36-35.74,78.26-43.1a126.34,126.34,0,0,0,120.2,87.69l389.6-.75a81.86,81.86,0,0,0,18.07-161.66ZM196.5,144.35c79.77-10.9,130.07,27.12,146.87,93.19C278.38,255,227.27,203.66,196.5,144.35ZM801.26,710.87,565.6,657c6.81-12.48,14.36-26.24,22.77-41.39a128.32,128.32,0,0,0,111,64.06c60.89,0,113.76-43.29,125.69-102.92a12,12,0,0,0-23.53-4.7,104.2,104.2,0,0,1-199,18c19.93-37.94,29.48-78,29.16-117.79,60.19-51.47,153-19,169.46,57a12,12,0,1,0,23.44-5.09,128.17,128.17,0,0,0-194.8-80.39c-4-31.53-14.48-64.39-31.22-91.77a237.18,237.18,0,0,0,11.77-74.52c0-55.35,34.48-111.89,85.88-111.89,50.85,0,85.88,55.78,85.88,111.89,0,58.74,20.66,113.2,56.68,149.45,62.48,62.83,56.44,179.47,2.17,248.18A149.46,149.46,0,0,1,801.26,710.87ZM308.44,771.16c-34.18,8.31-68.77,24.65-91.4,51.12A15.57,15.57,0,1,1,193.37,802a166.18,166.18,0,0,1,36.27-31.38c9.44-6.11,6-20.75-5.18-22l-92-10.25A15.57,15.57,0,1,1,136,707.47H136l.29,0h0a1.37,1.37,0,0,1,.28,0l-.17,0,83.1,9.27c3.81-.25,15.44,4.69,20.52-5.73a12,12,0,0,0-2.22-13.66,165.73,165.73,0,0,1-28.47-38.58,15.61,15.61,0,0,1,6.49-21h0a15.55,15.55,0,0,1,21,6.51c17.68,33.49,50.1,55.77,78,69.64A127.52,127.52,0,0,0,308.44,771.16Z"/>
</svg>