<?xml version="1.0" encoding="utf-8"?>
<svg version="1.1" xmlns="http://www.w3.org/2000/svg" viewBox="0 0 1001 1001">
	<path d="M936,280.1c-0.1-24.6-20-44.6-44.7-44.6h-0.1L109,236.6c-24.7,0-44.6,20.1-44.6,44.7L65,720.9
			c0,24.7,20,44.6,44.7,44.6h0.1l782.3-1.1c24.7-0.1,44.6-20.1,44.6-44.7L936,280.1z M842.2,280.2L500.5,517.8L158.1,281.2
			L842.2,280.2z M645,562.6l202.7,157.2l-695,1l203.9-158.2c9.8-7.6,11.5-21.6,4-31.3c-7.6-9.8-21.6-11.5-31.3-4l0,0L109.6,697.6
			l-0.5-396l378.8,261.7c7.7,5.3,17.8,5.3,25.5,0l378-262.8l0.6,397L672.4,527.3c-9.7-7.6-23.8-5.8-31.4,3.9S635.3,555.1,645,562.6
			L645,562.6z"/>
</svg>