<?xml version="1.0" encoding="utf-8"?>
<svg version="1.1" fill="#fe2b2b" xmlns="http://www.w3.org/2000/svg" viewBox="0 0 1001 1001" >
	<path d="M735.2,299.3c-64-64-166.5-67.9-235.1-8.9c-67.7-58.2-171.9-54.2-235,8.9c-63.9,63.9-66.1,167.1-8.8,236
		c-22.5,20.8-24.9,56.2-2.8,78.4c10.8,10.7,25.6,16.4,40.8,15.6c-1.7,31.4,24.9,58.1,56.4,56.4c-1.7,31.4,24.9,58.1,56.4,56.4
		c-2.8,51,60.3,73.9,93.9,38.1c8.7,8.4,19,16.2,33.9,18.2c32.6,4.2,62.4-23.5,60.3-56.3c31.1,1.4,58.3-25.1,56.4-56.4
		c8.8,0.3,17.5-1.4,25.4-5.2c20.2-9.4,32.3-29.4,31-51.1c14.1,0.8,28-3.9,38.6-13.3c31.1-27.5,19.2-60.2-1.2-82.9
		C803.1,464.3,798.7,362.8,735.2,299.3z M291.3,602c-22.8,0-34.8-28.6-18.6-44.8l48.3-48.3c23.9-23.9,61.1,13.2,37.1,37.2
		l-48.3,48.3C304.9,599.3,298.2,602,291.3,602z M347.6,658.4c-22.8,0-34.8-28.6-18.6-44.8l48.3-48.3c23.9-23.9,61.1,13.2,37.2,37.2
		l-48.3,48.3C361.3,655.6,354.6,658.4,347.6,658.4L347.6,658.4z M385.5,707.1c-10-10.3-10-26.8,0-37.2l48.3-48.3
		c23.9-23.9,61.1,13.2,37.1,37.2l-48.3,48.3C412.3,717.3,395.7,717.3,385.5,707.1L385.5,707.1z M441.8,763.5
		c-10.1-10.3-10.1-26.8,0-37.2l48.3-48.3c23.9-23.9,61.1,13.2,37.1,37.2L479,763.5C468.7,773.7,452.1,773.7,441.8,763.5
		L441.8,763.5z M567.8,748.2c-0.9,6.9-4.5,13.2-10,17.5c-12.7,9.9-26.9,5.1-37.6-5c11.8-11.8,27.5-23.8,35.5-38.7
		C563.2,728.9,569.1,737.6,567.8,748.2L567.8,748.2z M730.9,593.6c-7.5,7.5-25.9,13.6-38.6,1c-30.2-30.2-60.8-60.8-91.2-91.2
		c-12-12-31.8,6.6-19.2,19.2c30.4,30.4,60.8,60.8,91.2,91.2c23.6,23.7-14.6,59.7-37.2,37.2l-91.2-91.2c-12-12-31.8,6.6-19.2,19.2
		c30.3,30.3,61,60.9,91.2,91.2c23.6,23.7-13.4,60.7-37.1,37.2l-17.9-17.9c-3.7-27.3-28.6-47.7-56-46.2c1.8-31.4-25-58.1-56.4-56.4
		c1.8-31.4-25-58.2-56.4-56.4c1.7-29.5-20.8-54.7-50.3-56.4c-15.2-0.9-30.1,4.8-40.9,15.6l-26,26c-41-63-48.7-140,8.5-197.2
		c52.5-52.5,139-56.6,196.1-9.2l-79.1,79.1c-48.8,48.8,27,124.2,75.6,75.6l79.6-79.6l64.6,64.6c12,12,31.8-6.6,19.2-19.2
		c0,0-61.4-64.1-75.3-75.3c-5.4-4.3-13.2-3.9-18.1,1l-89.2,89.2c-23.9,23.9-61.1-13.2-37.2-37.1l89.2-89.2
		c57-57,149.3-56.9,206.3,0c53,53.1,57.2,137.7,9.6,195.7l-34.2-33.4c-12-12-31.8,6.6-19.2,19.2c12.6,11.9,49.3,47.2,49.3,47.2
		C731,557,749.7,576,730.9,593.6z"/>
</svg>
