<svg version="1.1" xmlns="http://www.w3.org/2000/svg" xmlns:xlink="http://www.w3.org/1999/xlink" viewBox="0 0 1001 1001">
	<path d="M500.5,11C230.2,11,11,230.1,11,500.5S230.2,990,500.5,990S990,770.8,990,500.5S770.9,11,500.5,11z
		 M500.5,928.8C264,928.8,72.2,737,72.2,500.5S264,72.2,500.5,72.2S928.8,264,928.8,500.5S737,928.8,500.5,928.8z"/>
		<defs>
			<circle id="SVGID_1_" cx="500.5" cy="500.5" r="390"/>
		</defs>
		<clipPath id="SVGID_2_">
			<use xlink:href="#SVGID_1_"  style="overflow:visible;"/>
		</clipPath>
		<g clip-path="url(#SVGID_2_)">
			<path d="M648.2,534.2h-96.1c-26.3,0-47.7,20.1-47.7,44.8v138.1c0,24.7,21.4,44.8,47.7,44.8h96.1
				c26.3,0,47.7-20.1,47.7-44.8V579C696,554.3,674.5,534.2,648.2,534.2z M661.2,717.1c0,6.8-5.9,12.2-13,12.2h-96.1
				c-7.2,0-13-5.6-13-12.2V579c0-6.8,5.9-12.2,13-12.2h96.1c7.2,0,13,5.6,13,12.2V717.1z"/>
			<path d="M853.1,408.2c0-2.8-0.8-5.6-2.3-8L745.5,226.3c-3.2-5.2-8.9-8.3-15-8.3H268c-6.1-0.1-11.8,3.1-15,8.3
				L147.9,400.2c-1.5,2.4-2.3,5.2-2.3,8c0,39,25,72.4,60.7,87.2v425.6c0,9,7.8,16.3,17.4,16.3h551.2c9.5,0,17.3-7.3,17.3-16.3
				V497.5c0-0.6,0-1.2-0.2-1.8C827.9,480.9,853.1,447.4,853.1,408.2z M278.1,250.8h442.2l82.3,136H196L278.1,250.8z M649.1,419.3
				c-5.5,29.4-32.8,51.6-65.6,51.6s-60.1-22.3-65.6-51.6H649.1z M481,419.3c-5.5,29.4-32.8,51.6-65.6,51.6s-60.1-22.3-65.8-51.6
				H481z M181.5,419.3h131.4c-5.5,29.4-33,51.6-65.8,51.6S186.9,448.6,181.5,419.3L181.5,419.3z M437,904.8h-99.7V590
				c0-12.8,11-23.2,24.7-23.2h50.5c13.6,0,24.7,10.3,24.7,23.2v314.8H437z M757.5,904.8H471.7V590c0-30.7-26.6-55.8-59.4-55.8
				h-50.4c-32.7,0-59.4,25-59.4,55.8v314.9H241V503.5c2,0.1,4,0.1,6.1,0.1c35,0,65.9-16.7,84.1-42.1c18.2,25.4,49.1,42.1,84.1,42.1
				s65.8-16.7,84.1-42.1c18.2,25.4,49.2,42.1,84,42.1s65.8-16.7,84-42.1c18.2,25.4,49.2,42.1,84.1,42.1c2,0,3.9-0.1,5.9-0.1
				L757.5,904.8L757.5,904.8z M751.6,471c-32.8,0-60.2-22.3-65.6-51.6h131.4C811.8,448.6,784.4,471,751.6,471z"/>
		</g>
</svg>
