<?xml version="1.0" encoding="utf-8"?>
<svg version="1.1" xmlns="http://www.w3.org/2000/svg" viewBox="0 0 1001 1001">
	<path d="M938.3,350.1l-82.6-162.8v-64.6c0-9.5-7.7-17.2-17.2-17.2h-676c-9.5,0-17.2,7.7-17.2,17.2v64.6L62.8,350.1
		c-1.2,2.4-1.9,5.1-1.9,7.8v42.2c0.1,49.5,35.7,91.8,84.5,100.2v360.8h-17.6c-9.5,0-17.2,7.7-17.2,17.2c0,9.5,7.7,17.2,17.2,17.2
		h745.5c9.5,0.2,17.4-7.3,17.6-16.8s-7.3-17.4-16.8-17.6c-0.3,0-0.6,0-0.8,0h-17.6V500.3c48.8-8.4,84.4-50.7,84.5-100.2v-42.2
		C940.2,355.2,939.6,352.5,938.3,350.1z M179.8,139.9h641.6v34.3H179.8V139.9z M602.1,356.1l-15-147.6h103.5l46.2,151.9v39.7
		c-0.5,37.2-31,67-68.1,66.5c-36.5-0.4-66.1-30-66.5-66.5v-42.3C602.2,357.3,602.2,356.7,602.1,356.1z M567.9,358.8v41.4l0,0
		c0,37.2-30.1,67.3-67.3,67.3s-67.3-30.1-67.3-67.3v-41.4l15.2-150.2h104.1L567.9,358.8z M414,208.6l-15,147.6
		c-0.1,0.6-0.1,1.2-0.1,1.7v42.2c0,37.2-30.2,67.3-67.4,67.3c-37.2,0-67.3-30.1-67.3-67.3v-39.7l46.2-151.9H414z M95.2,400.1V362
		l77.9-153.4h101.5l-43.9,144.3c-0.5,1.6-0.7,3.3-0.7,5v42.2c-0.5,37.2-31,67-68.1,66.5C125.2,466.2,95.7,436.7,95.2,400.1z
		 M752.7,861.1h-103V740.9h17.1c9.5-0.2,17-8.1,16.8-17.6c-0.2-9.2-7.6-16.5-16.8-16.8h-17.2V586.4h103L752.7,861.1z M821.4,861.1
		H787V569.2c0-9.5-7.7-17.2-17.2-17.2l0,0H231.3c-9.5,0-17.2,7.7-17.2,17.2c0,0,0,0,0,0v240.4c0,9.5,7.7,17.2,17.2,17.2h384v34.3
		H179.8V500.3c27.5-4.7,51.8-20.5,67.3-43.7c31.1,46.7,94.2,59.3,140.9,28.1c11.1-7.4,20.7-17,28.1-28.1
		c31.1,46.7,94.2,59.3,140.9,28.1c11.1-7.4,20.7-17,28.1-28.1c31.1,46.7,94.2,59.3,140.9,28.1c11.1-7.4,20.7-17,28.1-28.1
		c15.5,23.2,39.8,39,67.3,43.7L821.4,861.1L821.4,861.1z M415.9,586.4h59.8L443.1,619c-6.7,6.7-6.7,17.6,0,24.3
		c6.7,6.7,17.6,6.7,24.3,0l0,0l57-56.9h90.9v206.1H248.4v-38.6L415.9,586.4z M248.4,705.3V586.4h118.9L248.4,705.3z M905.9,400.1
		c-0.5,37.2-31,67-68.1,66.5c-36.5-0.4-66.1-30-66.5-66.5v-42.2c0-1.7-0.2-3.4-0.7-5l-43.9-144.3H828L905.9,362V400.1z"/>
	<path d="M420.1,683.5c4.5,0,8.9-1.8,12.1-5l0.3-0.3c6.6-6.8,6.4-17.7-0.5-24.3c-6.6-6.4-17.1-6.4-23.7-0.1l-0.3,0.3
		c-6.7,6.7-6.8,17.6-0.1,24.3C411.1,681.7,415.5,683.5,420.1,683.5z"/>
	<path d="M78.5,861.2h-0.4c-9.5,0-17.2,7.7-17.2,17.2c0,9.5,7.7,17.2,17.2,17.2h0.4c9.5,0,17.2-7.7,17.2-17.2
		C95.7,868.8,88,861.2,78.5,861.2z"/>
	<path d="M923,861.2h-0.4c-9.5,0.2-17,8.1-16.8,17.6c0.2,9.2,7.6,16.5,16.8,16.8h0.4c9.5-0.2,17-8.1,16.8-17.6
		C939.5,868.7,932.2,861.4,923,861.2z"/>
</svg>