<svg xmlns="http://www.w3.org/2000/svg" viewBox="0 0 1001 1001">
    <rect opacity="0" x="0.5" y="0.5" width="1000" height="1000"/>
    <path d="M500.5,968.19c-257.89,0-467.69-209.8-467.69-467.69S242.61,32.81,500.5,32.81,968.19,242.61,968.19,500.5,758.39,968.19,500.5,968.19Zm0-876.92C274.84,91.27,91.27,274.84,91.27,500.5S274.84,909.73,500.5,909.73,909.73,726.16,909.73,500.5,726.16,91.27,500.5,91.27Z"/>
    <path d="M705.11,756.83a31.88,31.88,0,0,1-22.78-9.46L477.72,542.76A32.4,32.4,0,0,1,468.27,520V314.49a32.23,32.23,0,0,1,64.46,0V506.62L727.9,701.79a32.29,32.29,0,0,1,0,45.59A31.92,31.92,0,0,1,705.11,756.83Z"/>
    <path d="M500.5,285.26a29.23,29.23,0,0,1,29.23,29.23V507.86l196,196a29.23,29.23,0,1,1-41.32,41.35L479.84,540.64A29.25,29.25,0,0,1,471.27,520V314.49a29.23,29.23,0,0,1,29.23-29.23m0-6a35.26,35.26,0,0,0-35.23,35.23V520a35.41,35.41,0,0,0,10.33,24.89L680.21,749.5a35.19,35.19,0,0,0,49.82,0,35.27,35.27,0,0,0,0-49.82L535.73,505.38V314.49a35.26,35.26,0,0,0-35.23-35.23Z"/>
</svg>