<svg xmlns="http://www.w3.org/2000/svg" viewBox="0 0 1001 1001">
    <rect opacity="0" x="0.5" y="0.5" width="1000" height="1000"/>
    <path d="M884.21,508.74c-64.26-115-169.89-185.36-293.7-198.39-62.07-78.4-256.85-98.26-265.25-99.08A16.07,16.07,0,0,0,308.71,233c19.1,49.57,38.66,106,43.84,129-35.37,16.18-66.29,33.39-86.22,47.73-43.22-69.15-131.47-70-135.5-70a16.07,16.07,0,0,0-16.07,16.08c0,93.12,32.46,139.86,54.16,160.73-21.7,20.85-54.16,67.6-54.16,160.72a16.06,16.06,0,0,0,16.07,16.07c4,0,92.28-.86,135.5-70,26.48,19.06,72.27,43.15,122.3,63.19-11.06,17.88-16.71,46.32-16.71,87.2A16.06,16.06,0,0,0,388,789.81c4.78,0,114.08-.95,168.51-64.8,138.44-2.67,257.64-75.17,327.71-200.6A16.12,16.12,0,0,0,884.21,508.74Zm-536-262.26c54,7.82,142.67,27,192.77,61.47-46.19,1.81-105.14,19.28-158.58,41.19C375.25,320.89,359.46,276.75,348.17,246.48Zm56.27,510.26c2.14-44.71,12.46-56.14,15.35-58.47,31.32,11,63.06,19.73,91.87,24.11C476.79,746.91,429.26,754.55,404.44,756.74Zm13.49-59.06v0l.13,0C418,697.66,418,697.69,417.93,697.68Zm130.79-4.31c-93.92,0-247.49-77.11-275.94-106.21a16,16,0,0,0-11.49-4.83,17.06,17.06,0,0,0-2.93.26A16.09,16.09,0,0,0,246.54,592c-21.69,50.31-72.7,64-99.22,67.8,5-100.73,52.7-127.64,55.15-129a16.15,16.15,0,0,0,0-28.58c-2.15-1.14-50.1-27.87-55.16-128.86,26.5,3.87,77.7,17.81,99.22,67.69A16.06,16.06,0,0,0,272.78,446c28.45-29.1,182-106.22,275.94-106.22,126.9,0,236.82,64.31,302.93,176.8C785.54,629.07,675.62,693.37,548.72,693.37Z"/><path class="cls-4" d="M596.94,516.57c0-74,29.18-119.26,29.48-119.71a16.07,16.07,0,0,0-26.78-17.78c-1.43,2.13-34.85,53.24-34.85,137.49s33.42,135.37,34.85,137.5a16.07,16.07,0,1,0,26.74-17.83C626.09,635.8,596.94,591.21,596.94,516.57Z"/><path class="cls-4" d="M557.57,374.6a16.08,16.08,0,0,0-22.22,4.48c-1.43,2.13-34.85,53.24-34.85,137.49,0,45,9.7,80.37,17.85,102.11a16.07,16.07,0,0,0,30.1-11.27c-7.2-19.26-15.8-50.66-15.8-90.84,0-74,29.18-119.26,29.48-119.71A16.12,16.12,0,0,0,557.57,374.6Z"/>
    <circle cx="693.37" cy="468.35" r="32.14"/>
</svg>