<?xml version="1.0" encoding="utf-8"?>
<svg version="1.1" xmlns="http://www.w3.org/2000/svg" viewBox="0 0 1000 1000">
	<path d="M190.5,583.4c0.6,0.9,55.6,88.9,117.9,175.7c118.2,164.9,162,187.6,191.7,187.6c29.7,0,73.3-22.7,191.5-187.6
		c62.3-86.8,117.4-174.8,117.9-175.7s1-1.8,1.5-2.7c21.7-43.5,47.7-107.5,47.7-165.8c0-91.4-39.1-182.9-107.3-251.1
		S591.6,56.7,500.1,56.7H500c-91.5,0-183.1,39.1-251.3,107.1S141.3,323.5,141.3,414.9c0,58.3,25.9,122.3,47.7,165.8
		C189.5,581.6,190,582.5,190.5,583.4z M500,122h0.1c156.2,0,293.3,136.9,293.3,292.9c0,35.2-14.2,83.1-40.1,135.1
		c-6.8,10.7-54.3,86-108.8,162.6c-97.2,136.7-134.7,163-144.5,168c-9.8-5-47.2-31.2-144.3-167.7c-54.5-76.6-102.2-152.1-109-162.8
		c-25.9-52-40.1-99.9-40.1-135.1C206.7,258.9,343.7,122,500,122z"/>
	<path d="M500,534.4c77.9,0,141.3-63.3,141.3-141.2S577.9,252,500,252s-141.3,63.4-141.3,141.2S422,534.4,500,534.4z
		 M500,317.4c41.9,0.1,75.8,34.1,75.7,76c-0.1,41.9-34.1,75.8-76,75.7c-41.8-0.1-75.7-34-75.7-75.8
		C424.1,351.3,458.1,317.4,500,317.4L500,317.4z"/>
</svg>

