<svg xmlns="http://www.w3.org/2000/svg" viewBox="0 0 1001 1001">
    <rect opacity="0" x="0.5" y="0.5" width="1000" height="1000"/>
    <path class="cls-4" d="M916.4,833.63,892.47,707.28c-8.19-43.28-35.84-80.54-73.94-99.65-1.9-1-3.47-1.71-4.77-2.29l-196-89.8a48.44,48.44,0,0,0-37.92-1.19,48.84,48.84,0,0,0-4.42,89.19L696,664.23a18.15,18.15,0,0,1-16.22,32.47L540.88,627.91a47,47,0,0,1-21.62-22.08l-75.43-161a55.7,55.7,0,0,0-70.23-28.3l-.42.16A55.55,55.55,0,0,0,341.94,489L430.08,709.9a113.41,113.41,0,0,0,53.25,58.75l67.43,34.91a14.08,14.08,0,0,0,12.94-25l-67.43-34.91a85.33,85.33,0,0,1-40-44.18l-88.14-220.9A27.39,27.39,0,0,1,383.42,443l.28-.11a27.48,27.48,0,0,1,34.64,14l75.43,161a75.11,75.11,0,0,0,34.62,35.36l138.94,68.8a46.54,46.54,0,0,0,60.33-17.81,46.33,46.33,0,0,0-19-65L588.12,578.41a20.82,20.82,0,0,1-9.85-26.27,20.69,20.69,0,0,1,27.78-11L802.19,631c1.24.54,2.47,1.15,3.7,1.77,30.32,15.21,52.35,45,58.92,79.74l23.92,126.34a14.08,14.08,0,0,0,13.82,11.46,13.85,13.85,0,0,0,2.63-.25A14.07,14.07,0,0,0,916.4,833.63Z"/>
    <path class="cls-4" d="M743.57,897.58l-3.5-9.22a64,64,0,0,0-30.52-34.3l-95.12-49.24a14.08,14.08,0,0,0-12.94,25l95.12,49.24a36,36,0,0,1,17.13,19.25l3.5,9.24a14.08,14.08,0,0,0,13.17,9.09,13.87,13.87,0,0,0,5-.92A14.07,14.07,0,0,0,743.57,897.58Z"/>
    <path class="cls-4" d="M653.45,300.66l-64.27-62.75a14.08,14.08,0,0,0-19.67,20.14l64.28,62.76a21,21,0,0,1,.36,29.77l-.19.2a21.13,21.13,0,0,1-28.7,1L491.53,253.05a65.79,65.79,0,0,0-40.29-16L320,231.5a41.64,41.64,0,0,0-42.83,36.43,41.4,41.4,0,0,0,39.08,46.24l114.23,5.56a15.49,15.49,0,0,1,14.62,14.88,15.39,15.39,0,0,1-15.56,15.86l-182.82-2.19c-1.11,0-2.24,0-3.37-.1-28.05-1.33-54.73-16.5-71.37-40.58L110,218a14.08,14.08,0,0,0-23.16,16l62,89.62c21.6,31.25,56.43,50.95,93.18,52.69,1.57.08,3.2.15,4.55.13l182.62,2.2a43.53,43.53,0,0,0,44.06-45,43.78,43.78,0,0,0-41.38-42l-114.23-5.56a13.23,13.23,0,0,1,1.21-26.43l131.24,5.53a37.49,37.49,0,0,1,23,9.14L586.81,373a49.35,49.35,0,0,0,67.06-2.34l.26-.26a49.2,49.2,0,0,0-.68-69.76Z"/>
    <path class="cls-4" d="M554.55,204.1l-45.27-44.21a98.31,98.31,0,0,0-62.81-27.81l-203.13-12.2a28.27,28.27,0,0,1-18.48-8.38l-5.88-6a14.08,14.08,0,0,0-20,19.8l5.88,5.94A56.37,56.37,0,0,0,241.66,148l203.13,12.2A70.16,70.16,0,0,1,489.61,180l45.28,44.21a14.07,14.07,0,0,0,19.66-20.14Z"/>
</svg>