<?xml version="1.0" encoding="utf-8"?>
<svg xmlns="http://www.w3.org/2000/svg" viewBox="0 0 1001 1001">
    <path d="M462.34,839.85c-152.54-19-267.58-149.41-267.58-303.38a306.35,306.35,0,0,1,34.73-141.61,117.32,117.32,0,0,0-54.7-194.13A18.39,18.39,0,0,0,157,205.49,117.29,117.29,0,0,0,189,394.07a342.29,342.29,0,0,0-17.32,46.79,115.61,115.61,0,0,0-11.19-13A117.8,117.8,0,0,0,47.1,397.48a18.37,18.37,0,0,0-13,13A117.26,117.26,0,0,0,147.6,558.15c3.69,0,7.39-.17,11.08-.52a342.07,342.07,0,0,0,8.36,57A116.57,116.57,0,0,0,150.82,609,117.81,117.81,0,0,0,37.48,639.35a18.38,18.38,0,0,0-4.76,17.78,117.78,117.78,0,0,0,83,83,116.35,116.35,0,0,0,30.17,4,118.08,118.08,0,0,0,67.41-21.21A343.87,343.87,0,0,0,251.06,771a117.85,117.85,0,0,0-95.34,58.48,18.38,18.38,0,0,0,0,18.4,117.33,117.33,0,0,0,203,.42,340.15,340.15,0,0,0,99.11,28,17.7,17.7,0,0,0,2.29.14,18.37,18.37,0,0,0,2.24-36.61ZM125.2,704.59a80.91,80.91,0,0,1-53.37-46.51A80.53,80.53,0,0,1,194.68,691,80.92,80.92,0,0,1,125.2,704.59Zm37-395.27a80.92,80.92,0,0,1,13.59-69.48,80.53,80.53,0,0,1,32.92,122.85,80.91,80.91,0,0,1-46.51-53.37ZM90.44,497.84a80.93,80.93,0,0,1-23-67,80.54,80.54,0,0,1,89.93,89.94A81,81,0,0,1,90.44,497.84Zm166.9,372a80.92,80.92,0,0,1-63.59-31.12,80.53,80.53,0,0,1,127.18,0A80.92,80.92,0,0,1,257.34,869.83Z"/><path d="M850.18,609A116.12,116.12,0,0,0,834,614.66a342.18,342.18,0,0,0,8.36-57c3.69.35,7.39.53,11.07.53A117.27,117.27,0,0,0,966.91,410.49a18.36,18.36,0,0,0-13-13,117.8,117.8,0,0,0-113.34,30.37,115.61,115.61,0,0,0-11.19,13,342.42,342.42,0,0,0-17.32-46.8A117.27,117.27,0,0,0,844,205.49a18.34,18.34,0,0,0-17.77-4.76,117.31,117.31,0,0,0-54.7,194.12,306.35,306.35,0,0,1,34.73,141.61c0,154-115,284.41-267.59,303.39a18.38,18.38,0,0,0,2.25,36.61,19.68,19.68,0,0,0,2.29-.14,340.41,340.41,0,0,0,99.1-28,117.33,117.33,0,0,0,203-.41,18.36,18.36,0,0,0,0-18.41A117.81,117.81,0,0,0,749.94,771a344.29,344.29,0,0,0,37.78-48.17,118.1,118.1,0,0,0,67.41,21.2,117.13,117.13,0,0,0,113.15-86.93,18.37,18.37,0,0,0-4.77-17.78A117.75,117.75,0,0,0,850.18,609Zm16.37-155.15a80.94,80.94,0,0,1,67-23,80.53,80.53,0,0,1-89.93,89.93A80.92,80.92,0,0,1,866.55,453.83ZM778.74,293.21a80.88,80.88,0,0,1,46.52-53.37,80.55,80.55,0,0,1-32.92,122.85A80.89,80.89,0,0,1,778.74,293.21Zm28.51,545.5a80.53,80.53,0,0,1-127.18,0,80.53,80.53,0,0,1,127.18,0ZM875.8,704.59A80.92,80.92,0,0,1,806.32,691a80.53,80.53,0,0,1,122.85-32.92A80.91,80.91,0,0,1,875.8,704.59Z"/>
    <path d="M618.63,712.91a36.15,36.15,0,0,0,13.3-41.09l-28.86-88.17,75.34-54.49a36.68,36.68,0,0,0-21.5-66.41h-93l-28.48-88.12a36.69,36.69,0,0,0-69.82,0l-28.48,88.12h-93a36.68,36.68,0,0,0-21.49,66.41l75.34,54.49-28.86,88.17a36.14,36.14,0,0,0,13.3,41.09,36.13,36.13,0,0,0,43.19,0l74.94-54.7,74.94,54.7a36.12,36.12,0,0,0,43.19,0ZM500.5,617a18.31,18.31,0,0,0-10.83,3.54l-85.61,62.48,33-100.72a18.36,18.36,0,0,0-6.7-20.61L344.28,499.5h106.2A18.39,18.39,0,0,0,468,486.77L500.5,386.13,533,486.77a18.37,18.37,0,0,0,17.49,12.73H656.71l-86.05,62.23A18.37,18.37,0,0,0,564,582.34l33,100.72-85.61-62.48A18.31,18.31,0,0,0,500.5,617Z"/><path d="M500.5,102.82a18.39,18.39,0,1,0-13-5.38,18.51,18.51,0,0,0,13,5.38Z"/>
    <path d="M356.52,271.19a18.38,18.38,0,0,0,33.31-15.53l-48-102.86a18.38,18.38,0,0,0-33.31,15.54Z"/><path d="M500.48,276.46h0a18.37,18.37,0,0,0,18.37-18.35l.12-90.84a18.39,18.39,0,0,0-18.35-18.4h0a18.38,18.38,0,0,0-18.38,18.36l-.12,90.84a18.38,18.38,0,0,0,18.36,18.39Z"/><path d="M620.06,280.08a18.38,18.38,0,0,0,24.42-8.89l48-102.85a18.38,18.38,0,0,0-33.31-15.54l-48,102.86A18.37,18.37,0,0,0,620.06,280.08Z"/>
</svg>
