<?xml version="1.0" encoding="utf-8"?>
<svg version="1.1" xmlns="http://www.w3.org/2000/svg" viewBox="0 0 1001 1001">
	<path class="st2 color_info" d="M963.3,319.9c-2.3-9.6-8.3-17.9-16.7-23l-262-160.7c-17.4-10.7-40.3-5.3-51,12.2L477.8,401.3l-77.9-229
	c-6.6-19.4-27.7-29.8-47.1-23.2l-291,99c-19.4,6.6-29.8,27.7-23.2,47.1c0,0,0,0,0,0l187.1,550c5.1,15,19.3,25.2,35.2,25.2
	c4.1,0,8.1-0.7,11.9-2l226.7-77.1l104.6,64.2c17.5,10.7,40.3,5.2,51-12.2L922.7,407c0.6-0.8,1.1-1.5,1.7-2.4
	c0.6-0.9,1.1-1.9,1.5-2.8l33-53.8C964.1,339.6,965.7,329.5,963.3,319.9z M95.7,294L354,206.2l6.4,18.8l-258.2,88.2L95.7,294z
	M494,735.6L494,735.6l-222.4,75.7L119.8,364.7l258.2-88.2l152,446.8L494,735.6z M617.8,800l-51.5-31.6c18-7.5,27-27.7,20.7-46.2
	l-86.4-254.1L632,254.7L863.8,399L617.8,800z M892.2,352.6L660.6,208.3l10.3-16.8l232.6,142.6L892.2,352.6z"/>
	<path class="st2" d="M400.1,533.5l-51.6-30.1l24-60.4c5.5-14-1.3-29.8-15.2-35.3c-14-5.5-29.8,1.3-35.3,15.3L301,475.7l-48.6-28.4
			c-13-7.5-29.7-3-37.1,10c-7.4,12.9-3.1,29.4,9.7,37l55.7,32.5l-20.9,52.8c-5.5,14,1.3,29.8,15.2,35.3s29.8-1.3,35.3-15.2
			l17.9-45.1l44.5,26c13,7.6,29.6,3.2,37.2-9.8C417.5,557.8,413.1,541.1,400.1,533.5L400.1,533.5L400.1,533.5z"/>
	<path class="st2" d="M750.9,488.5c-2.1-14.9-15.9-25.2-30.7-23.1l-76,10.7l2.6-31.3c1.3-15-9.9-28.1-24.8-29.4
			s-28.1,9.9-29.4,24.8l0,0l-5.5,65.3c0,0.1,0,0.2,0,0.2c0,0.5,0,1-0.1,1.6s0,0.8,0,1.2s0,0.8,0.1,1.1c0,0.6,0.1,1.1,0.2,1.7
			c0,0.1,0,0.1,0,0.2c0,0.3,0.1,0.5,0.2,0.8c0.1,0.5,0.2,1,0.3,1.5s0.2,0.7,0.3,1.1s0.2,0.9,0.4,1.4s0.4,1.2,0.7,1.7
			c0.1,0.2,0.2,0.4,0.2,0.6c0.7,1.6,1.5,3.1,2.5,4.5c0.1,0.1,0.2,0.3,0.3,0.4c0.4,0.5,0.8,1.1,1.2,1.6c0.2,0.2,0.4,0.4,0.6,0.6
			c0.4,0.4,0.7,0.8,1.1,1.2c0.2,0.2,0.5,0.5,0.8,0.7s0.7,0.6,1.1,0.9s0.6,0.5,0.9,0.7s0.7,0.5,1,0.8s0.7,0.5,1.1,0.7
			s0.7,0.4,1.1,0.6s0.7,0.4,1.1,0.6s0.8,0.4,1.2,0.6s0.7,0.3,1.1,0.5s1,0.4,1.5,0.5l0.8,0.3c1.7,0.5,3.4,0.8,5.2,1l0,0h0.9
			c0.4,0,0.9,0.1,1.3,0.1h0.1c0.7,0,1.5,0,2.2-0.1l0.9-0.1l0.6-0.1l109.8-15.5C742.6,517.2,753,503.4,750.9,488.5
			C750.9,488.5,750.9,488.5,750.9,488.5z"/>
</svg>
