<svg xmlns="http://www.w3.org/2000/svg" viewBox="0 0 1001 1001">
<rect opacity="0" x="0.5" y="0.5" width="1000" height="1000"/>
    <path class="cls-4" d="M752,249.92a13.63,13.63,0,0,0,19.26,0l38.52-38.53a13.63,13.63,0,0,0,0-19.26l-96.3-96.28a14,14,0,0,0-19.26,0l-38.51,38.52a13.62,13.62,0,0,0,0,19.26l9.62,9.63-28.88,28.88-9.64-9.62a13.62,13.62,0,0,0-19.26,0L414.92,375.11a13.63,13.63,0,0,0,0,19.26l9.63,9.63-48.14,48.16a13.6,13.6,0,0,0,0,19.25l57.77,57.79a13.63,13.63,0,0,0,19.26,0L501.59,481l9.63,9.63a13.62,13.62,0,0,0,19.26,0l82.42-82.41a176.6,176.6,0,0,1-41.73,314,67.79,67.79,0,0,0-114.08,0,177.44,177.44,0,0,1-82.21-58.38h98.38a13.62,13.62,0,0,0,13.62-13.62V595.77a13.61,13.61,0,0,0-13.62-13.62H200.89a13.62,13.62,0,0,0-13.62,13.62v54.47a13.62,13.62,0,0,0,13.62,13.62h78.78A259.79,259.79,0,0,0,446,804.41v22.86H323.46a68.19,68.19,0,0,0-68.1,68.1A13.62,13.62,0,0,0,269,909H759.26a13.62,13.62,0,0,0,13.62-13.62,68.19,68.19,0,0,0-68.1-68.1H582.22V804.35c137.6-37.26,218.95-179,181.69-316.62a258.05,258.05,0,0,0-92.67-137.82l51.83-51.84a13.62,13.62,0,0,0,0-19.26l-9.62-9.62,28.9-28.89ZM703.82,124.73l77,77L761.6,221l-77-77Zm-260,375.58-38.52-38.53,38.52-38.51,38.52,38.51ZM214.51,609.37H459.65v27.24H214.51Zm95.9,54.48h31.32a205,205,0,0,0,105.52,83.67,67.1,67.1,0,0,0-1.18,11.66v16.49A232.07,232.07,0,0,1,310.41,663.85Zm432.9,217.9H284.93a40.94,40.94,0,0,1,38.53-27.24H704.78a40.94,40.94,0,0,1,38.53,27.24Zm-270-54.48V759.18a40.86,40.86,0,0,1,81.72,0v68.09ZM745.64,554.9a231.64,231.64,0,0,1-163.42,221V759.18A67.17,67.17,0,0,0,581,747.6C687.42,711,743.94,595,707.3,488.65a203.65,203.65,0,0,0-74.89-99.9L652,369.16A231.17,231.17,0,0,1,745.64,554.9ZM520.85,461.78l-77-77L617.15,211.4l77,77ZM694.19,249.92l-38.51-38.53,28.88-28.89,19.26,19.26L723.09,221Z"/>
    <path class="cls-4" d="M607.52,259.56,492,375.11a13.62,13.62,0,0,0,18.93,19.6l.33-.34L626.78,278.81a13.62,13.62,0,0,0-19.26-19.25Z"/>
    <path class="cls-4" d="M194.08,371.82a13.62,13.62,0,0,0-5,18.6l9.07,15.73a13.55,13.55,0,0,0,25.08-9.25l14.24-8.17a53.89,53.89,0,0,0,24.69,14.49.79.79,0,0,1,.49.11v16.34A13.54,13.54,0,0,0,267.21,446h18.11a13.54,13.54,0,0,0,4.54-26.33V403.33a54.93,54.93,0,0,0,13.62-5.55,54.21,54.21,0,0,0,11.4-9.12l14.31,8.18a13.55,13.55,0,0,0,25.07,9.22l9.07-15.72a13.54,13.54,0,0,0-20.52-17.09l-14.15-8.17a54.59,54.59,0,0,0-.12-29l14.23-8.17a13.62,13.62,0,0,0,20.56-17.12l-9.07-15.71a13.54,13.54,0,0,0-25.07,9.23l-14.26,8.24a54.41,54.41,0,0,0-25.08-14.61V281.57a13.54,13.54,0,0,0-4.53-26.33H267.13a13.55,13.55,0,0,0-4.56,26.33v16.56a48.52,48.52,0,0,0-25,14.43l-14.3-8.25a13.54,13.54,0,0,0-25.09-9.22l-9.08,15.72a13.61,13.61,0,0,0,20.56,17.11l14.13,8.18a54.46,54.46,0,0,0,.11,29l-14.28,8.24A13.47,13.47,0,0,0,194.08,371.82ZM262.58,327a27.24,27.24,0,1,1-10,37.21v0a27.09,27.09,0,0,1,9.75-37.06Z"/>
</svg>