<?xml version="1.0" encoding="utf-8"?>
<svg version="1.1" xmlns="http://www.w3.org/2000/svg" viewBox="0 0 1000 1000" >
	<ellipse transform="matrix(0.1091 -0.994 0.994 0.1091 194.678 721.7576)" class="st2" cx="500" cy="252.3" rx="51.3" ry="51.3"/>
	<path d="M583.2,271.1c-10.3,46-55.9,74.9-101.9,64.6c-32.2-7.2-57.4-32.4-64.6-64.6c-31.2,7-53.5,34.6-53.5,66.6v68.4
		c0,18.9,15.3,34.2,34.2,34.2s34.2-15.3,34.2-34.2v-34.2h136.8v34.2c-0.3,18.9,14.7,34.4,33.6,34.8c18.9,0.3,34.4-14.7,34.8-33.6
		c0-0.4,0-0.8,0-1.2v-68.4C636.7,305.7,614.5,278.1,583.2,271.1z"/>
	<path d="M764.9,618.8c-24.5-14.2-55.9-5.8-70,18.8s-5.8,55.9,18.8,70c24.5,14.2,57,5.8,71.2-18.8
		S789.5,632.9,764.9,618.8z"/>
	<path d="M733.7,502l-59.2-34.2c-16.1-9.9-37.1-4.9-47,11.2s-4.9,37.1,11.2,47c0.5,0.3,1.1,0.6,1.6,0.9l29.6,17.1
		l-68.4,118.5l-29.6-17.1c-16.5-9.3-37.3-3.4-46.6,13c-9.1,16.2-3.6,36.7,12.4,46.2l59.2,34.2c27.7,16,62.8,10.6,84.5-13
		c-34.7-31.9-36.9-85.9-5-120.5c22.4-24.3,56.7-33.5,88.2-23.6C774.2,551.2,761.4,518.1,733.7,502z"/>
	<path d="M305.1,637.5c-14.2-24.5-45.5-32.9-70-18.8c0,0,0,0,0,0c-24.5,14.2-34.1,45.5-19.9,70s46.7,32.9,71.2,18.8
		C310.8,693.4,319.2,662,305.1,637.5z"/>
	<path d="M474.8,658c-9.5-16.3-30.3-21.9-46.7-12.5l-29.6,17.1l-68.4-118.4l29.6-17.1c16.2-9.7,21.5-30.7,11.8-46.9
		c-9.5-15.9-29.9-21.3-46-12.3L266.3,502c-27.7,16-40.5,49.1-30.9,79.7c45-14.1,92.8,11,106.9,56c9.8,31.5,0.6,65.8-23.6,88.2
		c21.7,23.6,56.7,29,84.5,13l59.2-34.2C478.6,695.2,484.2,674.3,474.8,658z"/>
</svg>
