<svg version="1.1" id="Livello_1" xmlns="http://www.w3.org/2000/svg" viewBox="0 0 1001 1001">
	<path d="M729.8,648.9c-34.7-34.8-76.8-61.2-123.2-77.3c50.9-34.9,81.4-92.7,81.4-154.5
			c0-103.4-84.1-187.5-187.5-187.5S313,313.8,313,417.1c0,61.8,30.5,119.6,81.4,154.5C263.8,617,176.3,740,176.2,878.2h50.7
			c0-150.9,122.7-273.6,273.6-273.6s273.6,122.7,273.6,273.6h50.7C825,792.2,790.8,709.6,729.8,648.9z M500.5,554
			c-75.4,0-136.8-61.4-136.8-136.8s61.4-136.8,136.8-136.8s136.8,61.4,136.8,136.8S575.9,554,500.5,554z"/>
</svg>
