<?xml version="1.0" encoding="utf-8"?>
<!-- Generator: Adobe Illustrator 25.0.1, SVG Export Plug-In . SVG Version: 6.00 Build 0)  -->
<svg version="1.1" id="Livello_1" xmlns="http://www.w3.org/2000/svg" xmlns:xlink="http://www.w3.org/1999/xlink" x="0px" y="0px"
	 viewBox="0 0 1001 1001" style="enable-background:new 0 0 1001 1001;" xml:space="preserve">
<style type="text/css">
	.st0{opacity:0;}
	.st1{fill:#FFFFFF;fill-opacity:0;}
	.st2{opacity:0;fill:#FFFFFF;fill-opacity:0;}
	.st3{fill:#1D1D1B;}
	.st4{fill:#010101;}
</style>
<g id="Livello_2_1_">
	<g id="Livello_2-2">
		<g class="st0">
			<rect x="0.5" y="0.5" class="st1" width="1000" height="1000"/>
		</g>
		<rect x="0.5" y="0.5" class="st2" width="1000" height="1000"/>
		<path class="st3" d="M500.5,47.5c250.3,0.2,453,203.2,452.8,453.4c-0.1,181.9-109,346.1-276.5,417c-230.8,96.6-496.3-12.2-593-243
			C-12.3,445.1,95,180.7,324.2,83.1C380,59.5,439.9,47.4,500.5,47.5 M500.5,2.5c-275,0-498,223-498,498s223,498,498,498
			s498-223,498-498S775.5,2.5,500.5,2.5z"/>
		<path class="st4" d="M729.8,648.9c-34.7-34.8-76.8-61.2-123.2-77.3c50.9-34.9,81.4-92.7,81.4-154.5
			c0-103.4-84.1-187.5-187.5-187.5S313,313.8,313,417.1c0,61.8,30.5,119.6,81.4,154.5C263.8,617,176.3,740,176.2,878.2h50.7
			c0-150.9,122.7-273.6,273.6-273.6s273.6,122.7,273.6,273.6h50.7C825,792.2,790.8,709.6,729.8,648.9z M500.5,554
			c-75.4,0-136.8-61.4-136.8-136.8s61.4-136.8,136.8-136.8s136.8,61.4,136.8,136.8S575.9,554,500.5,554z"/>
	</g>
</g>
</svg>
