<?xml version="1.0" encoding="utf-8"?>
<svg version="1.1" xmlns="http://www.w3.org/2000/svg" viewBox="0 0 1000 1000">
	<path d="M500,512.7c7,0,12.7-5.7,12.7-12.7c0-7-5.7-12.7-12.7-12.7s-12.7,5.7-12.7,12.7
		C487.3,507,493,512.7,500,512.7z"/>
	<path d="M512.7,271.5v-83.8c0-7-5.7-12.7-12.7-12.7c-7,0-12.7,5.7-12.7,12.7v83.8c0,7,5.7,12.7,12.7,12.7
		C507,284.2,512.7,278.5,512.7,271.5L512.7,271.5z"/>
	<path d="M347.6,325c6.1-3.5,8.1-11.3,4.6-17.3c0,0,0,0,0,0l-38.1-66c-3.5-6.1-11.3-8.2-17.4-4.6
		c-6.1,3.5-8.2,11.3-4.6,17.3l38.1,66C333.8,326.4,341.6,328.5,347.6,325C347.6,325,347.6,325,347.6,325z"/>
	<path d="M669.7,320.4l38.1-66c3.5-6.1,1.4-13.8-4.7-17.3c-6.1-3.5-13.8-1.4-17.3,4.6l-38.1,66
		c-3.5,6.1-1.4,13.8,4.7,17.4C658.4,328.5,666.2,326.4,669.7,320.4L669.7,320.4L669.7,320.4z"/>
	<path d="M236.2,508L236.2,508L236.2,508l253.9,312.3l0.1,0.1c4.5,5.4,12.5,6.1,17.9,1.7c0.6-0.5,1.2-1.1,1.7-1.8
		l253.8-312.2l0,0v0c3.8-4.6,3.8-11.3,0.1-15.9l-101.5-127c-2.4-3-6.1-4.7-9.9-4.8H347.5c-3.8,0-7.4,1.8-9.8,4.8l-101.6,127
		C232.5,496.8,232.5,503.4,236.2,508z M272.8,512.7h109.9l81.7,235.7L272.8,512.7z M535.6,748.4l81.7-235.7h109.9L535.6,748.4z
		 M656.8,398.9l70.7,88.4H626.1L656.8,398.9z M634.5,385.7l-31.1,89.7l-76-89.7H634.5z M580.1,487.3h-29.4c-7,0-12.7,5.7-12.7,12.7
		s5.7,12.7,12.7,12.7h39.7L500,773.6l-90.5-260.9h39.7c7,0,12.7-5.7,12.7-12.7c0-7-5.7-12.7-12.7-12.7h-29.4l80.2-94.6L580.1,487.3
		z M472.6,385.7l-76,89.7l-31.1-89.7H472.6z M343.2,398.9l30.6,88.4H272.5L343.2,398.9z"/>
</svg>
