<svg xmlns="http://www.w3.org/2000/svg" viewBox="0 0 1001 1001">
    <g class="cls-1">
        <rect class="cls-2" opacity="0" x="0.5" y="0.5" width="1000" height="1000"/>
    </g>
    <path class="cls-3" d="M720.49,183.83c-110.2-3.53-203.13,111.25-204.06,112.41l-15.95,20-15.93-20c-.9-1.12-91-112.47-199-112.47-1.69,0-3.38,0-5.08.08-60.3,2-116.26,39.44-166.34,111.36C83.46,339.3,74.05,387.33,85.39,442c41.83,201.61,353.08,412.6,415.11,452.89,62-40.29,373.28-251.28,415.11-452.89,11.34-54.7,1.93-102.72-28.78-146.83C836.75,223.27,780.79,185.8,720.49,183.83Z"/>
    <path class="cls-4" d="M720.49,183.83c-110.2-3.53-203.13,111.25-204.06,112.41l-15.95,20-15.93-20c-.9-1.12-91-112.47-199-112.47-1.69,0-3.38,0-5.08.08-60.3,2-116.26,39.44-166.34,111.36C83.46,339.3,74.05,387.33,85.39,442c41.83,201.61,353.08,412.6,415.11,452.89,62-40.29,373.28-251.28,415.11-452.89,11.34-54.7,1.93-102.72-28.78-146.83C836.75,223.27,780.79,185.8,720.49,183.83Z"/><path class="cls-4" d="M721.61,143.12C619.31,140,534.56,216.66,500.5,252.78,466.44,216.66,381.66,139.9,279.39,143.12c-73.93,2.33-140.77,45.67-198.65,128.8C43.8,325,32,385,45.52,450.33,66.61,552,148.16,664.86,287.88,785.89c102.74,89,197.92,148.05,201.92,150.52L500.5,943l10.7-6.61c4-2.47,99.18-61.54,201.92-150.52C852.84,664.86,934.38,552,955.48,450.33,969.05,385,957.2,325,920.26,271.92,862.38,188.79,795.54,145.45,721.61,143.12Zm194,298.9C873.78,643.63,562.53,854.62,500.5,894.91,438.47,854.62,127.22,643.63,85.39,442c-11.34-54.69-1.93-102.72,28.78-146.83,50.08-71.92,106-109.39,166.34-111.36,1.7-.05,3.39-.08,5.08-.08,108,0,198.06,111.35,199,112.47l15.93,20,15.95-20c.93-1.16,93.86-115.94,204.06-112.41,60.3,2,116.26,39.44,166.34,111.36C917.54,339.3,927,387.32,915.61,442Z"/>
</svg>